<svg width="14" height="15" viewBox="0 0 14 15" fill="none" xmlns="http://www.w3.org/2000/svg">
<path d="M5.05729 7.75C5.05727 6.29649 5.63261 4.90207 6.65758 3.87148C7.68255 2.84089 9.0738 2.25793 10.5273 2.25C9.54389 1.63062 8.41242 1.28623 7.25071 1.25271C6.089 1.21918 4.93954 1.49773 3.92206 2.05937C2.90458 2.621 2.05629 3.44516 1.46554 4.44601C0.874789 5.44687 0.563187 6.58781 0.563187 7.75C0.563187 8.9122 0.874789 10.0531 1.46554 11.054C2.05629 12.0548 2.90458 12.879 3.92206 13.4406C4.93954 14.0023 6.089 14.2808 7.25071 14.2473C8.41242 14.2138 9.54389 13.8694 10.5273 13.25C9.0738 13.2421 7.68255 12.6591 6.65758 11.6285C5.63261 10.5979 5.05727 9.20351 5.05729 7.75V7.75Z" stroke="#000001" stroke-linecap="round" stroke-linejoin="round"/>
<path d="M10.4173 4.79004L11.3273 6.60004H13.1373L11.7773 8.00004L12.2073 10L10.4173 9.00004L8.70729 10L9.06729 8.00004L7.70729 6.60004H9.51729L10.4173 4.79004Z" stroke="#000001" stroke-linecap="round" stroke-linejoin="round"/>
</svg>
